<svg xmlns="http://www.w3.org/2000/svg" viewBox="0 0 64 64">
  <defs>
    <filter id="glow" x="-30%" y="-30%" width="160%" height="160%">
      <feGaussianBlur stdDeviation="2.4" result="blur"/>
      <feMerge>
        <feMergeNode in="blur"/>
        <feMergeNode in="SourceGraphic"/>
      </feMerge>
    </filter>
  </defs>
  <rect width="64" height="64" rx="14" fill="#080a0d"/>
  <path d="M9 38.5c0-7.8 6.3-14.1 14.2-14.1 2-5.2 7.1-8.9 13.1-8.9 7.9 0 14.2 6.2 14.4 13.9 3.6.9 6.3 4.1 6.3 8 0 4.8-4 8.7-8.9 8.7H20.2C14 46.1 9 42.7 9 38.5Z" fill="#0d2530" stroke="#23b7ff" stroke-width="2.8" filter="url(#glow)"/>
  <path d="M20 37c5.2 4 11.1 4 16.3 0 4.4-3.4 8.6-3.4 12.9-.1" fill="none" stroke="#23b7ff" stroke-width="3.1" stroke-linecap="round" filter="url(#glow)"/>
</svg>
